<svg width="1318" height="428" viewBox="0 0 1318 428" fill="none" xmlns="http://www.w3.org/2000/svg">
<path d="M360 368.7C358.4 358.3 357 345.7 355.8 330.9C354.8 316.1 354 300 353.4 282.6C353 265.2 352.8 247.5 352.8 229.5C352.8 206.9 353.2 184.9 354 163.5C354.8 142.1 356 123.3 357.6 107.1L412.8 108C410.6 122.2 408.9 138.9 407.7 158.1C406.7 177.3 406.2 199.1 406.2 223.5C406.2 248.3 406.6 273.2 407.4 298.2C408.4 323.2 409.5 346.1 410.7 366.9L360 368.7ZM442.812 369.6C442.212 352 441.712 335.7 441.312 320.7C441.112 305.7 441.012 290.9 441.012 276.3C441.012 261.7 441.112 247.1 441.312 232.5C441.712 217.7 442.312 201.9 443.112 185.1H493.812C493.012 194.1 492.312 203.2 491.712 212.4C498.512 203.8 506.612 196.7 516.012 191.1C525.412 185.3 536.512 182.4 549.312 182.4C561.912 182.4 572.212 184.5 580.212 188.7C588.412 192.9 594.812 198.7 599.412 206.1C604.212 213.5 607.612 222 609.612 231.6C611.812 241 613.212 251.2 613.812 262.2C614.412 273 614.712 283.9 614.712 294.9C614.712 306.9 614.512 318.4 614.112 329.4C613.712 340.4 613.312 349.6 612.912 357C612.512 364.4 612.212 368.8 612.012 370.2H561.612C562.012 362 562.412 353.3 562.812 344.1C563.212 334.7 563.612 325.5 564.012 316.5C564.412 307.3 564.612 299 564.612 291.6C564.612 249 557.712 227.7 543.912 227.7C532.512 227.7 522.112 232.7 512.712 242.7C503.512 252.5 495.812 264.9 489.612 279.9C489.612 281.9 489.612 283.9 489.612 285.9C489.612 295.5 489.612 305.5 489.612 315.9C489.812 326.1 490.012 335.9 490.212 345.3C490.612 354.5 490.912 362.5 491.112 369.3L442.812 369.6ZM730.125 371.4C721.925 371.4 714.825 369 708.825 364.2C702.825 359.4 697.625 353.5 693.225 346.5C688.825 339.5 684.925 332.7 681.525 326.1C675.325 313.5 669.425 299.7 663.825 284.7C658.225 269.7 653.325 254.1 649.125 237.9C644.925 221.7 641.725 205.7 639.525 189.9L693.825 182.1C695.425 200.7 697.925 218.2 701.325 234.6C704.725 251 708.725 265.6 713.325 278.4C717.925 291.2 722.625 301.6 727.425 309.6C728.425 311 729.325 312.4 730.125 313.8C731.125 315.2 731.625 315.9 731.625 315.9C732.025 315.9 733.625 313.8 736.425 309.6C745.225 294.2 753.425 276.2 761.025 255.6C768.625 235 775.225 210.1 780.825 180.9L833.625 191.4C828.425 210.2 823.625 226.6 819.225 240.6C814.825 254.4 810.525 266.5 806.325 276.9C802.125 287.3 797.925 296.7 793.725 305.1C789.525 313.3 785.125 321.3 780.525 329.1C777.525 334.5 773.625 340.5 768.825 347.1C764.225 353.7 758.725 359.4 752.325 364.2C745.925 369 738.525 371.4 730.125 371.4ZM856.992 154.2C856.992 152.4 856.892 150.6 856.692 148.8C856.692 146.8 856.692 144.6 856.692 142.2C856.692 135.8 856.892 129 857.292 121.8C857.692 114.6 858.092 108.5 858.492 103.5L911.892 104.4C911.292 111.2 910.592 118.9 909.792 127.5C909.192 136.1 908.792 145 908.592 154.2H856.992ZM855.792 369C855.192 356.6 854.792 343.4 854.592 329.4C854.392 315.2 854.292 301 854.292 286.8C854.292 268.2 854.492 250.1 854.892 232.5C855.292 214.9 855.792 198.9 856.392 184.5L907.992 184.2C907.192 193.4 906.692 204.8 906.492 218.4C906.292 231.8 906.192 245.9 906.192 260.7C906.192 275.3 906.292 289.7 906.492 303.9C906.692 318.1 906.892 331 907.092 342.6C907.492 354 907.792 362.8 907.992 369H855.792ZM935.794 371.4C936.594 354.8 937.194 338.2 937.594 321.6C937.994 305 938.194 288.6 938.194 272.4C937.994 257.6 937.694 243 937.294 228.6C937.094 214 936.594 199.9 935.794 186.3L986.194 184.8C986.394 192.2 986.694 199.8 987.094 207.6C993.494 199.6 1000.89 193.2 1009.29 188.4C1017.89 183.4 1027.69 180.9 1038.69 180.9C1042.89 180.9 1048.29 181.5 1054.89 182.7C1061.49 183.9 1068.19 186.2 1074.99 189.6L1069.29 240.3C1064.29 237.3 1058.89 235.2 1053.09 234C1047.49 232.6 1042.79 231.9 1038.99 231.9C1026.19 231.9 1015.29 237.7 1006.29 249.3C997.494 260.7 991.494 276.6 988.294 297C988.294 311 988.094 324.4 987.694 337.2C987.494 349.8 986.994 361.2 986.194 371.4H935.794ZM1162.59 371.7C1147.59 371.7 1133.99 367.8 1121.79 360C1109.59 352.4 1099.89 342.1 1092.69 329.1C1085.69 315.9 1082.19 301.2 1082.19 285C1082.19 269.8 1084.99 256.1 1090.59 243.9C1096.19 231.5 1103.79 220.9 1113.39 212.1C1123.19 203.3 1134.29 196.6 1146.69 192C1159.09 187.2 1172.09 184.8 1185.69 184.8C1197.09 184.8 1208.29 186.4 1219.29 189.6C1220.09 185.4 1220.79 181.2 1221.39 177L1272.69 185.7C1271.29 189.5 1269.89 195.2 1268.49 202.8C1267.09 210.4 1265.89 218.9 1264.89 228.3C1264.09 237.7 1263.39 247.1 1262.79 256.5C1262.19 265.9 1261.89 274.4 1261.89 282C1261.89 288.2 1262.29 294.3 1263.09 300.3C1264.09 306.1 1266.09 310.9 1269.09 314.7C1272.09 318.3 1276.69 320.1 1282.89 320.1H1287.09L1279.59 372.3C1266.39 372.3 1255.49 370 1246.89 365.4C1238.29 361 1231.39 355 1226.19 347.4C1217.59 357 1207.79 363.4 1196.79 366.6C1185.79 370 1174.39 371.7 1162.59 371.7ZM1131.39 291C1132.39 300.6 1136.29 308.3 1143.09 314.1C1150.09 319.7 1158.89 322.5 1169.49 322.5C1179.69 322.5 1188.19 319.8 1194.99 314.4C1201.79 308.8 1207.39 301.2 1211.79 291.6C1211.59 288.4 1211.49 285.1 1211.49 281.7C1211.49 274.7 1211.69 267.5 1212.09 260.1C1212.49 252.7 1212.99 245.4 1213.59 238.2C1205.19 235 1196.39 233.4 1187.19 233.4C1176.39 233.4 1166.69 235.6 1158.09 240C1149.69 244.2 1143.09 250.1 1138.29 257.7C1133.49 265.3 1131.09 274.1 1131.09 284.1C1131.09 285.3 1131.09 286.5 1131.09 287.7C1131.09 288.9 1131.19 290 1131.39 291Z" fill="#0A5AB8"/>
<mask id="mask0_4_30" style="mask-type:luminance" maskUnits="userSpaceOnUse" x="0" y="105" width="284" height="282">
<path d="M284 105H0V387H284V105Z" fill="white"/>
</mask>
<g mask="url(#mask0_4_30)">
<path d="M231.977 184.501C236.859 183.202 241.175 180.345 244.262 176.369C247.347 172.394 249.03 167.522 249.051 162.503V162.443C249.051 156.411 246.639 150.627 242.342 146.361C238.047 142.096 232.221 139.7 226.147 139.7H226.088C221.034 139.722 216.128 141.394 212.126 144.458C208.123 147.521 205.245 151.807 203.938 156.654C200.196 170.113 192.111 181.981 180.924 190.439C169.735 198.896 156.063 203.476 142.002 203.476C127.941 203.476 114.268 198.896 103.08 190.439C91.8925 181.981 83.8078 170.113 80.0659 156.654C78.7571 151.807 75.8793 147.522 71.8762 144.459C67.8731 141.396 62.9668 139.725 57.9131 139.704H57.853C51.7785 139.704 45.9526 142.1 41.6572 146.365C37.3618 150.63 34.9487 156.415 34.9487 162.447V162.507C34.9711 167.525 36.6546 172.396 39.7401 176.371C42.8255 180.345 47.1416 183.202 52.0231 184.501C65.5772 188.216 77.5296 196.244 86.0471 207.353C94.5648 218.462 99.1773 232.039 99.1773 246.001C99.1773 259.963 94.5648 273.539 86.0471 284.648C77.5296 295.758 65.5772 303.785 52.0231 307.5C47.1418 308.8 42.8261 311.656 39.741 315.63C36.6558 319.605 34.9724 324.476 34.95 329.493V329.553C34.95 335.586 37.3631 341.369 41.6585 345.635C45.954 349.9 51.7797 352.296 57.8543 352.296H57.9143C62.9682 352.275 67.8743 350.602 71.877 347.539C75.8796 344.474 78.7566 340.189 80.0647 335.342C83.8065 321.884 91.8914 310.015 103.079 301.558C114.267 293.099 127.94 288.52 142.001 288.52C156.062 288.52 169.734 293.099 180.922 301.558C192.109 310.015 200.195 321.884 203.937 335.342C205.244 340.189 208.122 344.476 212.124 347.54C216.127 350.603 221.034 352.276 226.088 352.297H226.148C232.222 352.297 238.048 349.9 242.343 345.635C246.639 341.371 249.053 335.586 249.053 329.554V329.493C249.031 324.475 247.347 319.603 244.262 315.629C241.175 311.655 236.86 308.799 231.978 307.499C218.424 303.784 206.472 295.757 197.955 284.647C189.436 273.538 184.824 259.961 184.824 245.999C184.824 232.037 189.436 218.461 197.955 207.352C206.472 196.243 218.424 188.215 231.978 184.5L231.977 184.501Z" fill="url(#paint0_linear_4_30)"/>
<path d="M29.961 118.462C30.6977 119.19 31.6445 119.671 32.6697 119.84C33.6948 120.008 34.7473 119.855 35.681 119.402C44.1993 115.318 53.7838 113.957 63.1135 115.508C72.4432 117.06 81.0585 121.447 87.7718 128.064C88.6973 128.99 89.9479 129.524 91.2613 129.554C92.5748 129.584 93.8488 129.107 94.8158 128.224C95.2963 127.768 95.6803 127.222 95.9452 126.617C96.2101 126.013 96.3506 125.361 96.3583 124.702C96.366 124.042 96.2409 123.388 95.9903 122.777C95.7396 122.166 95.3686 121.611 94.8988 121.145C86.7123 113.036 76.1872 107.658 64.7833 105.756C53.3796 103.855 41.6627 105.525 31.2581 110.535C30.5497 110.884 29.9352 111.395 29.4657 112.027C28.9962 112.659 28.6851 113.393 28.5582 114.168C28.4314 114.943 28.4925 115.736 28.7365 116.483C28.9804 117.23 29.4002 117.909 29.961 118.462Z" fill="url(#paint1_linear_4_30)"/>
<path d="M5.59102 136C0.552031 146.298 -1.14429 157.895 0.736088 169.191C2.61646 180.487 7.98087 190.925 16.0892 199.066C16.9418 199.955 18.09 200.508 19.3216 200.622C20.553 200.736 21.7844 200.404 22.7881 199.686C23.3566 199.26 23.8265 198.717 24.1659 198.095C24.5054 197.472 24.7065 196.785 24.7556 196.079C24.8048 195.373 24.7009 194.665 24.4511 194.002C24.2011 193.34 23.8109 192.738 23.3069 192.238C16.6084 185.57 12.1639 176.999 10.5893 167.712C9.01471 158.424 10.3879 148.881 14.5186 140.403C14.9783 139.475 15.1348 138.428 14.9664 137.407C14.7981 136.386 14.3131 135.443 13.5793 134.71C13.0214 134.152 12.3378 133.735 11.585 133.493C10.8323 133.25 10.0322 133.19 9.25118 133.316C8.47014 133.442 7.73065 133.751 7.09409 134.218C6.45754 134.685 5.94224 135.296 5.59102 136Z" fill="url(#paint2_linear_4_30)"/>
<path d="M248.324 372.599C239.803 376.685 230.216 378.045 220.883 376.491C211.552 374.938 202.935 370.547 196.222 363.926C195.298 363.005 194.052 362.473 192.743 362.444C191.433 362.413 190.164 362.888 189.2 363.767C188.717 364.221 188.331 364.768 188.063 365.374C187.798 365.979 187.656 366.631 187.647 367.292C187.638 367.953 187.763 368.609 188.014 369.221C188.264 369.834 188.636 370.39 189.106 370.857C197.293 378.965 207.818 384.343 219.222 386.245C230.625 388.146 242.342 386.476 252.747 381.466C253.455 381.117 254.07 380.606 254.54 379.974C255.009 379.342 255.32 378.609 255.446 377.833C255.573 377.058 255.511 376.264 255.267 375.517C255.023 374.77 254.603 374.092 254.042 373.539C253.305 372.812 252.359 372.331 251.334 372.162C250.31 371.994 249.257 372.146 248.324 372.599Z" fill="url(#paint3_linear_4_30)"/>
<path d="M260.602 292.863C259.717 293.821 259.239 295.081 259.27 296.382C259.299 297.682 259.834 298.92 260.762 299.836C267.436 306.507 271.858 315.071 273.419 324.344C274.98 333.619 273.603 343.145 269.478 351.608C269.02 352.536 268.866 353.582 269.034 354.6C269.204 355.619 269.689 356.561 270.422 357.293C270.979 357.85 271.662 358.266 272.413 358.51C273.164 358.752 273.963 358.813 274.744 358.688C275.524 358.562 276.263 358.255 276.899 357.789C277.535 357.324 278.051 356.715 278.403 356.012C283.463 345.677 285.157 334.035 283.247 322.702C281.338 311.368 275.921 300.907 267.749 292.771C267.278 292.303 266.717 291.933 266.1 291.683C265.483 291.433 264.822 291.309 264.156 291.318C263.489 291.327 262.832 291.468 262.222 291.734C261.611 291.999 261.061 292.382 260.602 292.863Z" fill="url(#paint4_linear_4_30)"/>
<path d="M269.487 140.41C273.608 148.872 274.982 158.395 273.419 167.666C271.856 176.936 267.433 185.497 260.762 192.165C259.834 193.082 259.299 194.32 259.27 195.619C259.239 196.919 259.717 198.179 260.602 199.137C261.06 199.616 261.611 200 262.22 200.265C262.83 200.53 263.487 200.671 264.153 200.679C264.818 200.688 265.478 200.564 266.095 200.316C266.711 200.067 267.272 199.698 267.742 199.231C275.912 191.098 281.33 180.641 283.242 169.312C285.155 157.983 283.468 146.344 278.415 136.01C278.064 135.307 277.548 134.697 276.911 134.232C276.275 133.766 275.536 133.458 274.756 133.332C273.976 133.207 273.176 133.268 272.425 133.511C271.672 133.753 270.989 134.17 270.432 134.727C269.7 135.459 269.214 136.4 269.044 137.418C268.876 138.437 269.03 139.482 269.487 140.41Z" fill="url(#paint5_linear_4_30)"/>
<path d="M196.218 128.075C202.933 121.451 211.554 117.059 220.891 115.507C230.227 113.955 239.818 115.32 248.341 119.411C249.275 119.865 250.328 120.019 251.353 119.851C252.379 119.683 253.326 119.201 254.063 118.473C254.624 117.92 255.045 117.242 255.289 116.496C255.533 115.749 255.594 114.955 255.468 114.18C255.343 113.406 255.032 112.672 254.563 112.04C254.094 111.408 253.479 110.896 252.771 110.547C242.364 105.529 230.643 103.854 219.233 105.753C207.824 107.652 197.293 113.032 189.102 121.145C188.632 121.612 188.26 122.168 188.01 122.78C187.759 123.392 187.634 124.048 187.643 124.709C187.652 125.37 187.794 126.022 188.06 126.627C188.327 127.233 188.713 127.779 189.196 128.234C190.161 129.113 191.43 129.587 192.739 129.558C194.048 129.528 195.294 128.997 196.218 128.075Z" fill="url(#paint6_linear_4_30)"/>
<path d="M87.7833 363.926C81.0676 370.55 72.4466 374.941 63.1103 376.493C53.7739 378.045 44.1828 376.681 35.6605 372.589C34.7268 372.136 33.6738 371.982 32.6482 372.15C31.6226 372.318 30.6752 372.801 29.938 373.528C29.3771 374.081 28.9571 374.759 28.7127 375.506C28.4684 376.252 28.4068 377.047 28.533 377.821C28.6594 378.596 28.97 379.329 29.439 379.961C29.908 380.593 30.522 381.106 31.23 381.455C41.6369 386.472 53.3588 388.147 64.7683 386.247C76.1777 384.349 86.7086 378.969 94.8988 370.857C95.3694 370.39 95.741 369.833 95.9916 369.221C96.2421 368.609 96.3667 367.953 96.3578 367.292C96.349 366.631 96.207 365.979 95.9402 365.374C95.6734 364.768 95.2871 364.221 94.8043 363.767C93.8401 362.888 92.5705 362.413 91.2616 362.442C89.9529 362.473 88.7063 363.003 87.7833 363.926Z" fill="url(#paint7_linear_4_30)"/>
<path d="M14.5148 351.592C10.3935 343.129 9.01934 333.606 10.5821 324.335C12.1448 315.065 16.5674 306.504 23.2392 299.836C24.1671 298.919 24.702 297.681 24.7318 296.382C24.7616 295.081 24.2839 293.821 23.3989 292.863C22.9408 292.384 22.3906 292 21.7809 291.735C21.1711 291.471 20.5141 291.33 19.8487 291.322C19.1833 291.313 18.5227 291.437 17.9063 291.686C17.2898 291.935 16.7297 292.304 16.2591 292.771C8.08858 300.903 2.67083 311.361 0.758178 322.689C-1.15448 334.018 0.532851 345.657 5.58589 355.991C5.93764 356.694 6.45313 357.305 7.08958 357.77C7.72604 358.236 8.46513 358.544 9.24558 358.669C10.026 358.794 10.8254 358.733 11.5773 358.491C12.3292 358.249 13.0119 357.831 13.5691 357.274C14.302 356.542 14.7868 355.602 14.9564 354.583C15.1259 353.565 14.9715 352.519 14.5148 351.592Z" fill="url(#paint8_linear_4_30)"/>
</g>
<defs>
<linearGradient id="paint0_linear_4_30" x1="142.001" y1="371.643" x2="142.001" y2="205.818" gradientUnits="userSpaceOnUse">
<stop offset="0.005" stop-color="#0A5AB8"/>
<stop offset="1"/>
</linearGradient>
<linearGradient id="paint1_linear_4_30" x1="62.4262" y1="371.712" x2="62.4262" y2="205.845" gradientUnits="userSpaceOnUse">
<stop offset="0.005" stop-color="#0A5AB8"/>
<stop offset="1" stop-color="#0A5AB8"/>
</linearGradient>
<linearGradient id="paint2_linear_4_30" x1="12.3789" y1="371.619" x2="12.3789" y2="205.834" gradientUnits="userSpaceOnUse">
<stop offset="0.005" stop-color="#0A5AB8"/>
<stop offset="1" stop-color="#0A5AB8"/>
</linearGradient>
<linearGradient id="paint3_linear_4_30" x1="221.578" y1="371.629" x2="221.578" y2="205.784" gradientUnits="userSpaceOnUse">
<stop offset="0.005" stop-color="#0A5AB8"/>
<stop offset="1" stop-color="#0A5AB8"/>
</linearGradient>
<linearGradient id="paint4_linear_4_30" x1="271.639" y1="371.631" x2="271.639" y2="205.812" gradientUnits="userSpaceOnUse">
<stop offset="0.005" stop-color="#0A5AB8"/>
<stop offset="1" stop-color="#0A5AB8"/>
</linearGradient>
<linearGradient id="paint5_linear_4_30" x1="271.639" y1="371.635" x2="271.639" y2="205.803" gradientUnits="userSpaceOnUse">
<stop offset="0.005" stop-color="#0A5AB8"/>
<stop offset="1" stop-color="#0A5AB8"/>
</linearGradient>
<linearGradient id="paint6_linear_4_30" x1="221.587" y1="371.718" x2="221.587" y2="205.84" gradientUnits="userSpaceOnUse">
<stop offset="0.005" stop-color="#0A5AB8"/>
<stop offset="1" stop-color="#0A5AB8"/>
</linearGradient>
<linearGradient id="paint7_linear_4_30" x1="62.4137" y1="371.629" x2="62.4137" y2="205.774" gradientUnits="userSpaceOnUse">
<stop offset="0.005" stop-color="#0A5AB8"/>
<stop offset="1" stop-color="#0A5AB8"/>
</linearGradient>
<linearGradient id="paint8_linear_4_30" x1="12.3623" y1="371.608" x2="12.3623" y2="205.843" gradientUnits="userSpaceOnUse">
<stop offset="0.005" stop-color="#0A5AB8"/>
<stop offset="1" stop-color="#0A5AB8"/>
</linearGradient>
</defs>
</svg>
